<svg id="svg" version="1.1" xmlns="http://www.w3.org/2000/svg" xmlns:xlink="http://www.w3.org/1999/xlink" width="400" height="400" viewBox="0, 0, 400,400"><g id="svgg"><path id="path0" d="M217.333 149.276 C 165.798 153.115,131.308 203.773,150.169 247.926 C 165.311 283.374,210.431 297.546,248.000 278.654 C 290.432 257.317,303.505 205.521,274.853 172.259 C 261.276 156.497,239.137 147.651,217.333 149.276 M234.281 166.587 C 239.036 167.853,241.120 170.377,241.034 174.771 C 240.932 180.050,244.034 183.309,249.187 183.337 C 249.588 183.339,250.217 183.412,250.583 183.499 C 250.950 183.585,251.850 183.738,252.583 183.839 C 256.940 184.434,261.645 187.188,263.891 190.458 C 265.459 192.739,265.385 195.738,263.667 199.498 C 260.829 205.712,261.867 210.297,267.086 214.590 C 271.084 217.878,271.671 219.191,271.701 224.917 C 271.732 230.558,270.126 233.139,265.575 234.765 C 262.080 236.015,261.276 236.967,260.248 241.075 C 259.698 243.272,259.740 244.184,260.495 246.504 C 261.419 249.344,261.559 251.395,260.939 253.038 C 259.559 256.698,257.810 259.097,256.282 259.426 C 254.214 259.871,252.220 262.223,251.992 264.486 C 251.673 267.647,249.628 270.555,246.745 271.949 C 244.186 273.186,242.283 273.125,238.750 271.693 C 236.452 270.761,235.351 270.592,234.384 271.022 C 234.000 271.193,233.606 271.333,233.508 271.333 C 233.411 271.333,232.751 271.824,232.041 272.423 C 214.894 286.893,190.610 281.505,180.015 260.879 C 179.263 259.413,178.998 259.064,178.112 258.363 C 177.546 257.916,176.543 257.062,175.883 256.467 C 174.676 255.379,174.172 255.015,171.417 253.240 C 166.603 250.140,164.834 248.272,163.294 244.662 C 160.980 239.240,161.059 236.427,163.758 228.171 C 165.804 221.910,165.662 218.135,163.180 212.833 C 160.690 207.513,159.777 200.937,161.197 198.535 C 163.318 194.946,167.500 192.242,172.083 191.499 C 176.956 190.709,179.489 189.903,180.878 188.700 C 183.330 186.578,183.936 185.357,184.931 180.539 C 185.647 177.073,187.724 174.051,190.899 171.856 C 193.528 170.039,194.947 169.611,198.074 169.695 L 200.132 169.750 201.274 170.551 C 201.903 170.992,203.054 171.846,203.833 172.450 C 207.471 175.265,211.237 175.382,217.417 172.870 C 218.510 172.426,219.792 171.551,220.972 170.445 C 224.994 166.674,229.594 165.340,234.281 166.587 M230.792 168.621 C 231.090 168.658,231.577 168.658,231.875 168.621 C 232.173 168.584,231.929 168.553,231.333 168.553 C 230.737 168.553,230.494 168.584,230.792 168.621 M222.333 172.417 C 221.928 172.829,221.635 173.167,221.681 173.167 C 221.726 173.167,222.095 172.829,222.500 172.417 C 222.905 172.004,223.199 171.667,223.153 171.667 C 223.107 171.667,222.738 172.004,222.333 172.417 M190.242 175.542 L 189.583 176.250 190.292 175.591 C 190.950 174.978,191.077 174.833,190.950 174.833 C 190.923 174.833,190.605 175.152,190.242 175.542 M209.625 177.121 C 209.923 177.158,210.410 177.158,210.708 177.121 C 211.006 177.084,210.762 177.053,210.167 177.053 C 209.571 177.053,209.327 177.084,209.625 177.121 M262.552 194.583 C 262.553 195.133,262.584 195.338,262.621 195.039 C 262.658 194.739,262.657 194.289,262.619 194.039 C 262.581 193.788,262.551 194.033,262.552 194.583 M164.824 197.792 L 164.250 198.417 164.875 197.842 C 165.457 197.308,165.577 197.167,165.449 197.167 C 165.422 197.167,165.140 197.448,164.824 197.792 M162.883 201.500 C 162.883 202.004,162.915 202.210,162.953 201.958 C 162.991 201.706,162.991 201.294,162.953 201.042 C 162.915 200.790,162.883 200.996,162.883 201.500 M187.746 214.375 L 186.417 215.750 187.792 214.421 C 189.069 213.186,189.243 213.000,189.121 213.000 C 189.096 213.000,188.477 213.619,187.746 214.375 M263.500 214.750 C 263.998 215.254,264.443 215.667,264.489 215.667 C 264.534 215.667,264.165 215.254,263.667 214.750 C 263.169 214.246,262.724 213.833,262.678 213.833 C 262.632 213.833,263.002 214.246,263.500 214.750 M267.326 218.042 C 268.017 218.778,268.167 218.910,268.167 218.785 C 268.167 218.758,267.810 218.402,267.375 217.993 L 266.583 217.250 267.326 218.042 M260.324 234.958 L 259.750 235.583 260.375 235.009 C 260.719 234.693,261.000 234.412,261.000 234.384 C 261.000 234.257,260.859 234.377,260.324 234.958 M243.895 238.500 C 243.895 239.463,243.923 239.856,243.956 239.375 C 243.990 238.894,243.990 238.106,243.956 237.625 C 243.923 237.144,243.895 237.537,243.895 238.500 M176.052 241.583 C 176.053 242.133,176.084 242.338,176.121 242.039 C 176.158 241.739,176.157 241.289,176.119 241.039 C 176.081 240.788,176.051 241.033,176.052 241.583 M243.729 243.417 C 243.729 244.425,243.757 244.816,243.790 244.286 C 243.823 243.755,243.823 242.930,243.789 242.452 C 243.756 241.974,243.729 242.408,243.729 243.417 M176.053 245.000 C 176.053 245.596,176.084 245.840,176.121 245.542 C 176.158 245.244,176.158 244.756,176.121 244.458 C 176.084 244.160,176.053 244.404,176.053 245.000 M243.879 247.500 C 243.879 247.912,243.911 248.081,243.951 247.875 C 243.991 247.669,243.991 247.331,243.951 247.125 C 243.911 246.919,243.879 247.088,243.879 247.500 M245.158 260.125 L 244.583 260.750 245.208 260.176 C 245.790 259.641,245.910 259.500,245.783 259.500 C 245.755 259.500,245.474 259.781,245.158 260.125 M249.545 264.167 C 249.545 264.579,249.578 264.748,249.618 264.542 C 249.657 264.335,249.657 263.998,249.618 263.792 C 249.578 263.585,249.545 263.754,249.545 264.167 M164.083 276.726 C 152.685 279.583,146.130 302.541,152.851 316.065 C 157.042 324.498,164.666 325.312,170.999 318.001 L 171.797 317.080 171.568 315.870 C 171.181 313.824,170.993 309.938,171.166 307.572 C 171.424 304.044,171.478 304.167,169.994 304.919 C 169.072 305.387,169.001 305.610,169.412 306.750 C 170.108 308.684,169.371 310.833,168.011 310.833 C 167.584 310.833,167.548 311.456,167.917 312.500 C 169.002 315.575,165.570 318.373,162.920 316.575 C 162.076 316.002,161.793 316.055,160.769 316.983 C 157.806 319.666,154.737 317.146,155.583 312.724 C 155.991 310.592,155.617 309.822,153.902 309.266 C 151.781 308.579,151.255 305.956,152.776 303.657 L 153.223 302.981 152.939 301.776 C 152.783 301.113,152.472 300.273,152.249 299.910 C 151.515 298.714,151.718 297.424,152.873 295.955 C 153.593 295.039,153.911 293.683,153.648 292.656 C 153.192 290.877,154.404 289.232,156.688 288.530 C 160.209 287.447,159.994 287.612,159.415 286.427 C 157.476 282.465,163.774 280.380,166.109 284.211 C 166.788 285.326,167.343 285.669,168.662 285.789 L 169.604 285.874 170.594 284.961 C 172.647 283.066,174.769 283.029,175.529 284.875 C 176.759 287.865,177.501 288.471,178.499 287.303 C 178.758 286.999,179.511 286.127,180.170 285.365 C 180.830 284.603,181.342 283.957,181.310 283.928 C 181.277 283.900,180.108 283.300,178.711 282.596 C 175.942 281.198,172.671 279.268,170.278 277.620 L 168.750 276.567 166.833 276.542 C 165.762 276.529,164.549 276.610,164.083 276.726 M183.650 286.792 C 173.322 297.388,171.580 314.944,179.627 327.333 C 188.956 341.697,207.632 343.632,219.846 331.500 C 221.602 329.756,223.311 327.740,223.148 327.603 C 222.462 327.030,219.930 325.506,219.835 325.609 C 219.763 325.687,219.617 326.268,219.509 326.902 C 219.089 329.386,218.666 329.665,215.323 329.666 L 212.897 329.667 212.386 330.166 C 212.106 330.440,211.597 331.209,211.256 331.874 C 209.524 335.254,205.655 335.692,202.236 332.895 C 200.479 331.458,198.407 331.484,196.230 332.970 C 191.240 336.376,187.167 334.137,187.167 327.987 C 187.167 325.714,186.289 325.031,182.917 324.682 C 178.573 324.232,176.867 321.708,178.313 317.870 C 179.061 315.886,178.865 314.301,177.526 311.500 C 176.294 308.923,177.585 305.212,180.560 302.776 C 182.012 301.588,182.453 299.584,181.667 297.750 C 181.236 296.745,181.236 295.510,181.667 294.666 C 182.046 293.922,184.877 291.570,186.198 290.901 C 187.515 290.233,188.814 289.352,189.066 288.954 C 189.424 288.390,189.564 287.258,189.301 287.057 C 189.106 286.907,185.211 285.498,184.996 285.499 C 184.948 285.500,184.342 286.081,183.650 286.792 M222.317 290.002 C 221.896 290.073,220.827 290.186,219.942 290.252 L 218.333 290.373 218.333 291.026 C 218.333 292.417,219.054 293.241,221.312 294.434 C 226.138 296.984,227.222 301.722,223.746 305.083 C 221.890 306.879,221.394 308.519,222.522 309.133 C 225.905 310.974,226.546 314.387,223.704 315.432 C 222.525 315.865,221.842 316.449,221.403 317.396 C 220.925 318.428,220.712 318.186,223.962 320.321 L 226.507 321.994 226.914 321.073 C 231.010 311.812,230.259 299.784,225.045 291.125 C 224.182 289.693,224.172 289.688,222.317 290.002 M159.039 299.333 C 159.039 299.654,159.073 299.785,159.115 299.625 C 159.157 299.465,159.157 299.202,159.115 299.042 C 159.073 298.881,159.039 299.012,159.039 299.333 M187.885 311.250 C 187.886 311.800,187.917 312.005,187.954 311.705 C 187.991 311.406,187.990 310.956,187.952 310.705 C 187.914 310.455,187.884 310.700,187.885 311.250 M200.406 311.708 L 199.917 312.250 200.458 311.760 C 200.963 311.304,201.077 311.167,200.948 311.167 C 200.919 311.167,200.675 311.410,200.406 311.708 M191.794 315.951 C 192.001 315.991,192.301 315.990,192.460 315.948 C 192.620 315.906,192.450 315.874,192.083 315.875 C 191.717 315.877,191.586 315.911,191.794 315.951 M205.583 342.651 L 205.083 342.762 205.616 342.952 C 205.961 343.076,206.266 343.367,206.484 343.780 C 206.668 344.130,207.080 344.604,207.399 344.833 C 208.258 345.450,208.616 346.484,208.138 346.962 C 207.793 347.307,208.254 347.978,209.077 348.331 C 211.084 349.191,211.990 351.008,210.920 352.024 C 210.394 352.522,210.394 352.842,210.917 353.334 C 211.778 354.142,211.923 355.874,211.198 356.685 C 210.116 357.897,208.167 357.376,208.167 355.874 C 208.167 355.096,207.933 354.833,207.242 354.833 C 205.502 354.833,204.766 353.695,205.485 352.116 C 205.967 351.057,205.362 349.667,204.419 349.667 C 203.401 349.667,203.002 347.477,203.750 346.000 C 204.376 344.764,204.293 343.520,203.561 343.187 C 202.945 342.906,201.889 342.949,201.770 343.259 C 200.035 347.779,204.339 356.745,209.368 359.086 C 215.528 361.954,214.958 350.439,208.631 344.200 C 206.957 342.549,206.677 342.407,205.583 342.651 M196.171 343.076 C 196.050 343.301,195.569 343.740,195.101 344.051 C 192.421 345.836,190.763 348.717,190.764 351.583 C 190.767 355.589,194.293 356.566,198.071 353.607 C 198.614 353.181,199.166 352.833,199.297 352.833 C 199.459 352.833,199.497 352.740,199.415 352.542 C 199.349 352.381,199.160 351.875,198.994 351.417 C 198.642 350.444,198.468 350.410,198.287 351.278 C 198.034 352.498,197.270 352.906,196.058 352.468 C 195.549 352.284,195.462 352.308,194.848 352.802 C 193.926 353.542,193.165 353.532,192.400 352.767 C 191.225 351.592,191.985 349.740,193.781 349.401 C 194.521 349.261,194.904 348.797,194.760 348.214 C 194.488 347.104,194.473 346.800,194.670 346.325 C 195.003 345.522,195.587 345.167,196.574 345.167 C 197.704 345.167,197.942 344.952,198.075 343.814 L 198.185 342.879 197.655 342.773 C 196.715 342.585,196.399 342.649,196.171 343.076 M261.577 343.542 L 260.750 344.417 261.625 343.590 C 262.438 342.821,262.576 342.667,262.452 342.667 C 262.426 342.667,262.032 343.060,261.577 343.542 M267.542 343.119 C 267.794 343.158,268.206 343.158,268.458 343.119 C 268.710 343.081,268.504 343.050,268.000 343.050 C 267.496 343.050,267.290 343.081,267.542 343.119 " stroke="none" fill="#319ef9" fill-rule="evenodd"></path><path id="path1" d="M149.750 57.833 C 150.201 58.292,150.608 58.667,150.654 58.667 C 150.700 58.667,150.368 58.292,149.917 57.833 C 149.465 57.375,149.058 57.000,149.013 57.000 C 148.967 57.000,149.299 57.375,149.750 57.833 M144.917 59.167 C 145.368 59.625,145.775 60.000,145.821 60.000 C 145.867 60.000,145.535 59.625,145.083 59.167 C 144.632 58.708,144.225 58.333,144.179 58.333 C 144.133 58.333,144.465 58.708,144.917 59.167 M150.000 63.917 C 150.311 64.237,150.603 64.500,150.649 64.500 C 150.695 64.500,150.478 64.237,150.167 63.917 C 149.856 63.596,149.564 63.333,149.518 63.333 C 149.472 63.333,149.689 63.596,150.000 63.917 M166.294 64.285 C 166.501 64.324,166.801 64.323,166.960 64.281 C 167.120 64.239,166.950 64.207,166.583 64.209 C 166.217 64.211,166.086 64.245,166.294 64.285 M176.042 65.448 C 176.202 65.490,176.465 65.490,176.625 65.448 C 176.785 65.406,176.654 65.372,176.333 65.372 C 176.012 65.372,175.881 65.406,176.042 65.448 M178.458 65.621 C 178.756 65.658,179.244 65.658,179.542 65.621 C 179.840 65.584,179.596 65.553,179.000 65.553 C 178.404 65.553,178.160 65.584,178.458 65.621 M158.500 66.914 C 158.500 66.969,158.784 67.405,159.132 67.882 C 159.479 68.359,160.132 69.348,160.583 70.078 C 161.034 70.809,162.066 72.196,162.876 73.162 C 167.019 78.095,171.076 87.055,172.087 93.500 C 172.411 95.567,173.248 99.833,173.608 101.250 C 174.154 103.400,176.365 107.851,178.082 110.257 C 179.116 111.706,184.228 116.833,185.333 117.530 C 186.733 118.413,188.979 119.599,190.438 120.225 C 191.159 120.535,193.063 121.428,194.667 122.210 C 197.469 123.575,199.855 124.676,201.234 125.239 C 203.812 126.292,205.750 127.830,209.261 131.612 C 212.547 135.151,213.251 137.215,213.136 142.975 L 213.072 146.200 213.828 146.107 C 214.243 146.056,215.108 145.965,215.750 145.906 L 216.917 145.798 216.928 143.441 C 216.961 136.741,219.555 133.361,227.113 130.170 C 228.380 129.635,230.170 128.860,231.092 128.447 C 232.013 128.034,233.325 127.529,234.008 127.324 C 237.430 126.298,242.779 123.740,245.343 121.905 C 250.398 118.286,255.265 108.367,256.581 99.000 C 256.729 97.946,257.032 95.996,257.254 94.667 C 257.475 93.337,257.737 91.350,257.835 90.250 C 258.135 86.892,258.550 85.187,259.666 82.724 C 260.283 81.364,260.366 81.416,258.667 82.104 C 257.061 82.754,254.010 83.769,251.669 84.432 C 250.003 84.904,244.129 87.178,242.632 87.931 C 239.277 89.618,232.937 94.571,230.697 97.255 C 226.658 102.094,225.308 106.878,225.267 116.500 C 225.248 121.050,225.146 121.546,224.097 122.186 C 221.535 123.748,220.377 120.438,221.058 113.500 C 221.211 111.946,220.237 106.664,219.169 103.250 C 218.911 102.425,218.509 101.066,218.275 100.229 C 217.981 99.180,217.477 98.043,216.649 96.562 C 210.097 84.855,204.339 78.710,196.597 75.160 C 194.664 74.273,192.258 73.135,191.250 72.629 C 187.126 70.560,183.490 69.668,177.833 69.338 C 175.253 69.188,168.695 68.457,167.984 68.241 C 167.838 68.197,166.676 68.093,165.401 68.011 C 163.390 67.881,159.087 67.177,158.650 66.906 C 158.567 66.855,158.500 66.859,158.500 66.914 M208.500 78.917 C 208.811 79.237,209.103 79.500,209.149 79.500 C 209.195 79.500,208.978 79.237,208.667 78.917 C 208.356 78.596,208.064 78.333,208.018 78.333 C 207.972 78.333,208.189 78.596,208.500 78.917 M194.541 92.807 C 195.818 93.800,197.632 95.592,198.616 96.833 C 199.088 97.429,200.099 98.704,200.862 99.667 C 202.469 101.693,204.260 104.969,205.282 107.750 C 205.776 109.092,204.954 110.333,203.574 110.333 C 202.783 110.333,201.944 109.778,201.735 109.118 C 200.846 106.302,195.987 98.908,194.118 97.525 C 191.478 95.573,190.548 94.195,191.103 93.059 C 191.735 91.768,193.080 91.669,194.541 92.807 M229.409 92.875 L 228.750 93.583 229.458 92.925 C 230.117 92.312,230.243 92.167,230.117 92.167 C 230.090 92.167,229.771 92.485,229.409 92.875 M241.882 101.336 C 242.833 102.084,242.784 102.792,241.492 106.958 C 240.898 108.874,237.120 114.325,235.967 114.930 C 233.789 116.073,231.956 113.461,233.793 111.833 C 234.441 111.259,237.501 106.792,237.818 105.957 C 237.907 105.722,238.134 104.884,238.321 104.094 C 238.992 101.272,240.407 100.176,241.882 101.336 M179.083 117.000 C 179.441 117.367,179.772 117.667,179.818 117.667 C 179.863 117.667,179.608 117.367,179.250 117.000 C 178.892 116.633,178.562 116.333,178.516 116.333 C 178.470 116.333,178.725 116.633,179.083 117.000 M180.917 119.000 C 181.275 119.367,181.605 119.667,181.651 119.667 C 181.697 119.667,181.441 119.367,181.083 119.000 C 180.725 118.633,180.395 118.333,180.349 118.333 C 180.303 118.333,180.559 118.633,180.917 119.000 M207.160 135.042 C 207.850 135.778,208.000 135.910,208.000 135.785 C 208.000 135.758,207.644 135.402,207.208 134.993 L 206.417 134.250 207.160 135.042 M209.385 141.583 C 209.386 142.133,209.417 142.338,209.454 142.039 C 209.491 141.739,209.490 141.289,209.452 141.039 C 209.414 140.788,209.384 141.033,209.385 141.583 M221.458 145.622 C 221.848 145.657,222.485 145.657,222.875 145.622 C 223.265 145.587,222.946 145.558,222.167 145.558 C 221.387 145.558,221.069 145.587,221.458 145.622 M274.250 166.500 C 274.608 166.867,274.938 167.167,274.984 167.167 C 275.030 167.167,274.775 166.867,274.417 166.500 C 274.059 166.133,273.728 165.833,273.682 165.833 C 273.637 165.833,273.892 166.133,274.250 166.500 M165.991 167.958 L 165.417 168.583 166.042 168.009 C 166.385 167.693,166.667 167.412,166.667 167.384 C 166.667 167.257,166.526 167.377,165.991 167.958 M161.906 172.042 L 161.417 172.583 161.958 172.094 C 162.256 171.825,162.500 171.581,162.500 171.552 C 162.500 171.423,162.362 171.537,161.906 172.042 M293.372 207.667 C 293.372 207.987,293.406 208.119,293.448 207.958 C 293.490 207.798,293.490 207.535,293.448 207.375 C 293.406 207.215,293.372 207.346,293.372 207.667 M293.542 210.083 C 293.544 210.450,293.578 210.580,293.618 210.373 C 293.658 210.166,293.656 209.866,293.615 209.706 C 293.573 209.547,293.540 209.717,293.542 210.083 M293.542 217.250 C 293.544 217.617,293.578 217.747,293.618 217.540 C 293.658 217.332,293.656 217.032,293.615 216.873 C 293.573 216.714,293.540 216.883,293.542 217.250 M141.545 218.333 C 141.545 218.746,141.578 218.915,141.618 218.708 C 141.657 218.502,141.657 218.165,141.618 217.958 C 141.578 217.752,141.545 217.921,141.545 218.333 M293.372 219.500 C 293.372 219.821,293.406 219.952,293.448 219.792 C 293.490 219.631,293.490 219.369,293.448 219.208 C 293.406 219.048,293.372 219.179,293.372 219.500 M141.388 222.583 C 141.389 223.225,141.419 223.467,141.455 223.121 C 141.491 222.775,141.490 222.250,141.454 221.955 C 141.417 221.659,141.387 221.942,141.388 222.583 M141.548 226.917 C 141.549 227.375,141.581 227.543,141.620 227.289 C 141.658 227.036,141.657 226.661,141.617 226.456 C 141.578 226.251,141.546 226.458,141.548 226.917 M239.561 238.417 C 239.561 239.333,239.589 239.687,239.623 239.203 C 239.657 238.718,239.656 237.968,239.622 237.536 C 239.588 237.104,239.560 237.500,239.561 238.417 M180.387 241.667 C 180.387 242.262,180.417 242.506,180.454 242.208 C 180.491 241.910,180.491 241.423,180.454 241.125 C 180.417 240.827,180.387 241.071,180.387 241.667 M239.398 243.333 C 239.398 244.479,239.424 244.948,239.457 244.375 C 239.489 243.802,239.489 242.865,239.457 242.292 C 239.424 241.719,239.398 242.188,239.398 243.333 M180.385 245.083 C 180.386 245.633,180.417 245.838,180.454 245.539 C 180.491 245.239,180.490 244.789,180.452 244.539 C 180.414 244.288,180.384 244.533,180.385 245.083 M226.461 244.621 C 226.761 244.658,227.211 244.657,227.461 244.619 C 227.712 244.581,227.467 244.551,226.917 244.552 C 226.367 244.553,226.162 244.584,226.461 244.621 M223.042 244.782 C 223.202 244.823,223.465 244.823,223.625 244.782 C 223.785 244.740,223.654 244.705,223.333 244.705 C 223.012 244.705,222.881 244.740,223.042 244.782 M219.125 244.951 C 219.331 244.991,219.669 244.991,219.875 244.951 C 220.081 244.911,219.912 244.879,219.500 244.879 C 219.088 244.879,218.919 244.911,219.125 244.951 M215.461 245.121 C 215.761 245.158,216.211 245.157,216.461 245.119 C 216.712 245.081,216.467 245.051,215.917 245.052 C 215.367 245.053,215.162 245.084,215.461 245.121 M230.372 246.167 C 230.372 246.487,230.406 246.619,230.448 246.458 C 230.490 246.298,230.490 246.035,230.448 245.875 C 230.406 245.715,230.372 245.846,230.372 246.167 M239.548 247.417 C 239.549 247.875,239.581 248.043,239.620 247.789 C 239.658 247.536,239.657 247.161,239.617 246.956 C 239.578 246.751,239.546 246.958,239.548 247.417 M226.961 247.954 C 227.261 247.991,227.711 247.990,227.961 247.952 C 228.212 247.914,227.967 247.884,227.417 247.885 C 226.867 247.886,226.662 247.917,226.961 247.954 M223.458 248.118 C 223.665 248.157,224.002 248.157,224.208 248.118 C 224.415 248.078,224.246 248.045,223.833 248.045 C 223.421 248.045,223.252 248.078,223.458 248.118 M219.542 248.282 C 219.702 248.323,219.965 248.323,220.125 248.282 C 220.285 248.240,220.154 248.205,219.833 248.205 C 219.512 248.205,219.381 248.240,219.542 248.282 M215.961 248.454 C 216.261 248.491,216.711 248.490,216.961 248.452 C 217.212 248.414,216.967 248.384,216.417 248.385 C 215.867 248.386,215.662 248.417,215.961 248.454 M212.458 248.618 C 212.665 248.657,213.002 248.657,213.208 248.618 C 213.415 248.578,213.246 248.545,212.833 248.545 C 212.421 248.545,212.252 248.578,212.458 248.618 M234.355 263.246 C 233.976 263.657,233.671 264.125,233.677 264.288 C 233.685 264.498,233.735 264.464,233.853 264.167 C 233.944 263.938,234.291 263.469,234.626 263.125 C 234.961 262.781,235.191 262.500,235.138 262.500 C 235.086 262.500,234.733 262.836,234.355 263.246 M190.000 267.750 C 190.498 268.254,190.943 268.667,190.989 268.667 C 191.034 268.667,190.665 268.254,190.167 267.750 C 189.669 267.246,189.224 266.833,189.178 266.833 C 189.132 266.833,189.502 267.246,190.000 267.750 M159.000 267.917 C 159.311 268.237,159.603 268.500,159.649 268.500 C 159.695 268.500,159.478 268.237,159.167 267.917 C 158.856 267.596,158.564 267.333,158.518 267.333 C 158.472 267.333,158.689 267.596,159.000 267.917 M268.824 268.458 L 268.250 269.083 268.875 268.509 C 269.219 268.193,269.500 267.912,269.500 267.884 C 269.500 267.757,269.359 267.877,268.824 268.458 M209.795 276.287 C 210.094 276.325,210.544 276.324,210.795 276.286 C 211.045 276.248,210.800 276.217,210.250 276.218 C 209.700 276.219,209.495 276.250,209.795 276.287 M172.075 286.708 L 171.417 287.417 172.125 286.758 C 172.784 286.145,172.910 286.000,172.784 286.000 C 172.757 286.000,172.438 286.319,172.075 286.708 M207.125 290.451 C 207.331 290.491,207.669 290.491,207.875 290.451 C 208.081 290.411,207.912 290.379,207.500 290.379 C 207.088 290.379,206.919 290.411,207.125 290.451 M211.375 290.624 C 212.177 290.655,213.490 290.655,214.292 290.624 C 215.094 290.594,214.438 290.569,212.833 290.569 C 211.229 290.569,210.573 290.594,211.375 290.624 M216.052 291.417 C 216.053 291.967,216.084 292.172,216.121 291.872 C 216.158 291.572,216.157 291.122,216.119 290.872 C 216.081 290.622,216.051 290.867,216.052 291.417 M158.991 293.625 L 158.417 294.250 159.042 293.676 C 159.623 293.141,159.743 293.000,159.616 293.000 C 159.588 293.000,159.307 293.281,158.991 293.625 M206.667 295.083 C 206.978 295.404,207.270 295.667,207.315 295.667 C 207.361 295.667,207.144 295.404,206.833 295.083 C 206.522 294.762,206.230 294.500,206.185 294.500 C 206.139 294.500,206.356 294.762,206.667 295.083 M191.158 297.625 L 190.583 298.250 191.208 297.676 C 191.552 297.360,191.833 297.078,191.833 297.051 C 191.833 296.923,191.692 297.043,191.158 297.625 M165.224 298.917 C 165.224 299.650,165.254 299.929,165.289 299.537 C 165.324 299.145,165.324 298.545,165.288 298.204 C 165.252 297.863,165.223 298.183,165.224 298.917 M189.573 299.208 L 189.083 299.750 189.625 299.260 C 190.130 298.804,190.243 298.667,190.115 298.667 C 190.086 298.667,189.842 298.910,189.573 299.208 M209.045 301.167 C 209.045 301.579,209.078 301.748,209.118 301.542 C 209.157 301.335,209.157 300.998,209.118 300.792 C 209.078 300.585,209.045 300.754,209.045 301.167 M146.565 303.000 C 146.565 304.237,146.592 304.744,146.624 304.125 C 146.656 303.506,146.656 302.494,146.624 301.875 C 146.592 301.256,146.565 301.762,146.565 303.000 M170.792 302.284 C 170.998 302.324,171.335 302.324,171.542 302.284 C 171.748 302.245,171.579 302.212,171.167 302.212 C 170.754 302.212,170.585 302.245,170.792 302.284 M232.872 304.167 C 232.872 304.487,232.906 304.619,232.948 304.458 C 232.990 304.298,232.990 304.035,232.948 303.875 C 232.906 303.715,232.872 303.846,232.872 304.167 M162.991 305.458 L 162.417 306.083 163.042 305.509 C 163.623 304.974,163.743 304.833,163.616 304.833 C 163.588 304.833,163.307 305.115,162.991 305.458 M233.063 307.833 C 233.063 308.887,233.090 309.319,233.123 308.792 C 233.156 308.265,233.156 307.402,233.123 306.875 C 233.090 306.348,233.063 306.779,233.063 307.833 M160.458 306.451 C 160.665 306.491,161.002 306.491,161.208 306.451 C 161.415 306.411,161.246 306.379,160.833 306.379 C 160.421 306.379,160.252 306.411,160.458 306.451 M159.324 315.125 L 158.750 315.750 159.375 315.176 C 159.957 314.641,160.077 314.500,159.949 314.500 C 159.922 314.500,159.640 314.781,159.324 315.125 M181.052 315.917 C 181.053 316.467,181.084 316.672,181.121 316.372 C 181.158 316.072,181.157 315.622,181.119 315.372 C 181.081 315.122,181.051 315.367,181.052 315.917 M186.583 317.333 C 186.941 317.700,187.272 318.000,187.318 318.000 C 187.363 318.000,187.108 317.700,186.750 317.333 C 186.392 316.967,186.062 316.667,186.016 316.667 C 185.970 316.667,186.225 316.967,186.583 317.333 M191.458 319.455 C 191.848 319.490,192.485 319.490,192.875 319.455 C 193.265 319.420,192.946 319.392,192.167 319.392 C 191.387 319.392,191.069 319.420,191.458 319.455 M180.167 321.052 C 180.167 321.081,180.410 321.325,180.708 321.594 L 181.250 322.083 180.760 321.542 C 180.304 321.037,180.167 320.923,180.167 321.052 M188.000 324.052 C 188.000 324.081,188.244 324.325,188.542 324.594 L 189.083 325.083 188.594 324.542 C 188.138 324.037,188.000 323.923,188.000 324.052 M216.500 327.333 L 215.917 327.456 216.448 327.478 C 216.741 327.490,217.027 327.425,217.083 327.333 C 217.140 327.242,217.163 327.177,217.135 327.189 C 217.107 327.201,216.821 327.266,216.500 327.333 M198.788 329.620 C 199.084 329.657,199.609 329.658,199.955 329.622 C 200.300 329.586,200.058 329.555,199.417 329.555 C 198.775 329.554,198.492 329.583,198.788 329.620 M221.240 335.042 L 220.750 335.583 221.292 335.094 C 221.797 334.638,221.910 334.500,221.781 334.500 C 221.752 334.500,221.509 334.744,221.240 335.042 M267.708 340.782 C 267.869 340.823,268.131 340.823,268.292 340.782 C 268.452 340.740,268.321 340.705,268.000 340.705 C 267.679 340.705,267.548 340.740,267.708 340.782 M260.744 342.708 L 259.917 343.583 260.792 342.756 C 261.605 341.988,261.743 341.833,261.619 341.833 C 261.592 341.833,261.199 342.227,260.744 342.708 M276.083 342.833 C 276.441 343.200,276.772 343.500,276.818 343.500 C 276.863 343.500,276.608 343.200,276.250 342.833 C 275.892 342.467,275.562 342.167,275.516 342.167 C 275.470 342.167,275.725 342.467,276.083 342.833 M205.336 344.625 C 205.338 344.959,205.379 345.019,205.487 344.848 C 205.569 344.719,205.597 344.513,205.550 344.390 C 205.415 344.038,205.333 344.127,205.336 344.625 M196.948 346.289 C 197.682 346.341,197.823 346.405,197.883 346.717 C 197.942 347.021,197.958 347.005,197.977 346.625 C 198.000 346.172,197.988 346.167,197.042 346.197 L 196.083 346.228 196.948 346.289 M279.379 349.000 C 279.379 349.412,279.411 349.581,279.451 349.375 C 279.491 349.169,279.491 348.831,279.451 348.625 C 279.411 348.419,279.379 348.587,279.379 349.000 M206.872 351.333 C 206.872 351.654,206.906 351.785,206.948 351.625 C 206.990 351.465,206.990 351.202,206.948 351.042 C 206.906 350.881,206.872 351.012,206.872 351.333 M257.052 351.917 C 257.053 352.467,257.084 352.672,257.121 352.372 C 257.158 352.072,257.157 351.622,257.119 351.372 C 257.081 351.122,257.051 351.367,257.052 351.917 M275.960 352.285 C 276.168 352.324,276.468 352.323,276.627 352.281 C 276.786 352.239,276.617 352.207,276.250 352.209 C 275.883 352.211,275.753 352.245,275.960 352.285 M209.209 355.417 C 209.211 355.783,209.245 355.914,209.285 355.706 C 209.324 355.499,209.323 355.199,209.281 355.040 C 209.239 354.880,209.207 355.050,209.209 355.417 M203.917 359.500 C 204.275 359.867,204.605 360.167,204.651 360.167 C 204.697 360.167,204.441 359.867,204.083 359.500 C 203.725 359.133,203.395 358.833,203.349 358.833 C 203.303 358.833,203.559 359.133,203.917 359.500 M260.000 360.552 C 260.000 360.581,260.244 360.825,260.542 361.094 L 261.083 361.583 260.594 361.042 C 260.138 360.537,260.000 360.423,260.000 360.552 M210.875 363.115 C 211.035 363.157,211.298 363.157,211.458 363.115 C 211.619 363.073,211.487 363.039,211.167 363.039 C 210.846 363.039,210.715 363.073,210.875 363.115 " stroke="none" fill="#97f3a5" fill-rule="evenodd"></path><path id="path2" d="M228.250 168.980 C 226.014 169.532,224.863 170.214,222.577 172.341 C 218.686 175.961,211.545 177.922,206.720 176.697 C 204.710 176.186,204.217 175.897,200.568 173.083 L 199.271 172.083 197.543 172.115 C 192.618 172.203,188.409 176.044,187.257 181.500 C 186.326 185.908,185.525 187.606,183.389 189.700 C 181.548 191.504,180.431 192.160,178.250 192.718 C 175.171 193.506,174.839 193.574,171.605 194.075 C 168.732 194.521,165.781 196.480,163.603 199.388 C 162.318 201.103,163.291 207.607,165.486 211.972 C 167.844 216.662,168.275 222.215,166.664 227.167 C 163.410 237.173,163.341 238.984,166.002 244.617 C 167.191 247.134,168.932 248.768,173.500 251.657 C 174.554 252.323,175.885 253.237,176.458 253.687 C 177.031 254.137,177.500 254.448,177.500 254.377 C 177.500 254.306,177.425 253.988,177.334 253.671 C 173.528 240.398,177.859 224.254,187.910 214.250 C 196.519 205.681,208.987 201.920,219.667 204.669 C 219.987 204.752,221.037 205.011,222.000 205.246 C 224.306 205.809,228.041 207.101,230.877 208.316 C 235.125 210.137,239.684 216.068,241.833 222.571 C 243.607 227.937,243.887 230.251,243.865 239.417 C 243.841 249.949,243.897 250.275,246.149 252.579 C 248.249 254.727,248.328 255.802,246.579 258.431 C 245.418 260.175,244.681 260.804,242.865 261.602 C 240.860 262.482,240.267 262.877,239.632 263.753 C 239.330 264.170,238.797 264.865,238.447 265.297 C 238.097 265.730,237.658 266.383,237.470 266.750 C 237.283 267.117,236.941 267.619,236.709 267.866 L 236.288 268.316 236.769 268.414 C 237.450 268.552,238.308 268.828,239.083 269.158 C 240.767 269.873,241.154 270.008,242.215 270.245 C 245.612 271.005,249.075 268.094,249.526 264.098 C 249.866 261.083,252.379 258.034,255.315 257.073 C 256.469 256.696,257.017 255.933,258.404 252.771 C 258.949 251.527,258.976 250.059,258.484 248.416 C 257.481 245.072,257.468 245.001,257.544 243.000 C 257.750 237.557,259.992 234.080,264.223 232.640 C 268.722 231.109,269.878 228.606,269.100 222.082 C 268.778 219.384,268.434 218.878,265.016 216.077 C 261.033 212.812,259.705 210.001,259.884 205.212 C 259.998 202.145,260.263 200.972,261.388 198.552 C 262.681 195.770,262.889 193.429,261.964 192.051 C 259.510 188.392,255.280 186.391,248.667 185.757 C 241.849 185.104,237.328 179.837,238.659 174.099 C 239.446 170.707,233.365 167.715,228.250 168.980 M160.873 294.758 C 158.991 296.076,158.500 301.922,160.111 303.835 C 160.842 304.705,161.649 304.326,162.388 302.764 C 163.963 299.439,162.819 293.395,160.873 294.758 M200.333 296.684 C 195.561 297.281,189.807 302.988,188.346 308.573 C 186.731 314.745,190.432 317.622,196.250 314.718 C 205.841 309.929,209.088 295.588,200.333 296.684 M205.233 311.628 C 204.237 312.293,204.649 313.111,206.621 314.389 C 207.517 314.969,209.487 316.254,211.000 317.244 C 212.512 318.234,214.282 319.390,214.932 319.814 C 215.582 320.237,225.725 326.846,237.473 334.500 L 258.832 348.417 258.708 349.417 C 258.135 354.029,260.507 360.075,262.783 359.802 C 263.824 359.677,264.013 358.623,263.167 357.667 C 262.554 356.974,261.918 355.960,261.599 355.167 C 261.433 354.754,261.222 354.229,261.130 354.000 C 260.806 353.187,260.769 350.335,261.068 349.171 C 262.935 341.905,271.203 340.907,274.592 347.538 C 275.352 349.027,275.874 349.397,276.570 348.941 C 277.687 348.209,276.768 345.903,274.430 343.575 C 270.185 339.349,263.274 340.196,260.250 345.314 C 259.643 346.341,259.691 346.338,258.342 345.438 C 257.346 344.774,256.144 343.988,251.250 340.802 C 250.333 340.206,248.571 339.056,247.333 338.248 C 244.433 336.354,241.658 334.544,239.667 333.248 C 238.796 332.681,237.071 331.556,235.833 330.748 C 232.933 328.854,230.158 327.044,228.167 325.748 C 227.296 325.181,225.571 324.056,224.333 323.248 C 221.433 321.354,218.658 319.544,216.667 318.248 C 215.796 317.681,214.071 316.556,212.833 315.748 C 205.820 311.168,206.367 311.499,205.803 311.503 C 205.590 311.504,205.334 311.560,205.233 311.628 " stroke="none" fill="#5afff7" fill-rule="evenodd"></path><path id="path3" d="M144.150 55.047 C 142.517 56.145,143.579 58.301,147.011 60.853 C 147.620 61.306,149.054 62.706,150.198 63.963 C 151.342 65.221,152.803 66.700,153.444 67.250 C 154.860 68.464,155.852 69.681,157.160 71.807 C 157.704 72.692,158.832 74.242,159.667 75.250 C 163.892 80.356,167.358 88.014,168.419 94.583 C 170.204 105.647,172.416 110.270,179.155 117.016 C 180.857 118.720,182.576 120.319,182.974 120.569 C 184.311 121.409,187.308 122.996,188.785 123.646 C 189.591 124.001,191.563 124.931,193.167 125.713 C 194.771 126.496,196.796 127.448,197.667 127.830 C 200.263 128.970,201.689 129.711,202.663 130.428 C 203.729 131.213,207.741 135.401,208.286 136.297 C 209.880 138.920,209.743 146.545,208.096 146.920 C 207.906 146.964,206.813 147.193,205.667 147.430 C 158.296 157.222,129.513 205.958,146.369 247.833 C 149.815 256.393,157.363 267.375,161.985 270.552 C 162.855 271.150,163.294 271.571,163.411 271.917 C 163.503 272.192,163.674 272.477,163.789 272.550 C 164.049 272.714,164.066 273.000,163.817 273.000 C 163.716 273.000,163.397 273.108,163.109 273.240 C 162.820 273.371,162.104 273.677,161.518 273.918 C 148.921 279.111,142.504 302.155,149.495 317.093 C 154.294 327.346,164.176 329.538,171.873 322.057 C 172.697 321.255,172.843 321.170,172.935 321.439 C 176.069 330.577,182.592 337.743,190.667 340.919 C 191.537 341.262,192.278 341.567,192.313 341.597 C 192.347 341.628,191.949 342.043,191.427 342.519 C 187.369 346.228,186.077 352.225,188.518 356.028 C 190.845 359.655,196.356 359.710,200.414 356.146 C 200.848 355.766,201.079 355.653,201.128 355.799 C 201.733 357.615,205.886 361.437,208.333 362.430 C 217.996 366.354,220.403 351.841,211.673 342.289 L 210.803 341.337 211.276 341.158 C 216.386 339.228,221.307 335.618,224.898 331.167 C 225.526 330.387,226.134 329.750,226.249 329.750 C 226.431 329.750,231.637 333.144,252.291 346.731 L 257.165 349.937 257.216 352.260 C 257.331 357.409,260.162 362.148,263.132 362.163 C 265.005 362.173,266.561 360.342,266.249 358.495 C 266.149 357.900,265.918 357.488,264.790 355.883 C 262.978 353.306,263.355 349.232,265.594 347.186 C 268.052 344.939,271.272 345.989,272.929 349.576 C 275.151 354.384,280.940 352.010,278.928 347.116 C 275.728 339.335,266.779 337.097,260.978 342.628 L 259.705 343.841 245.045 334.203 C 236.982 328.902,230.182 324.417,229.933 324.236 L 229.481 323.907 230.059 322.556 C 233.733 313.972,233.991 303.112,230.715 294.834 C 229.470 291.686,228.888 290.667,228.337 290.667 C 227.782 290.667,227.000 290.042,227.000 289.599 C 227.000 288.660,227.764 288.169,229.233 288.164 C 241.327 288.119,262.450 276.297,274.193 263.000 C 315.697 216.005,286.637 147.459,224.471 145.717 C 220.295 145.600,220.673 145.813,220.669 143.568 C 220.661 138.730,222.706 136.067,228.095 133.899 C 228.914 133.570,230.473 132.890,231.560 132.387 C 232.647 131.885,234.335 131.213,235.310 130.893 C 241.919 128.729,248.484 125.015,250.884 122.083 C 255.876 115.984,259.536 106.702,260.671 97.264 C 260.769 96.446,260.952 95.284,261.076 94.681 C 261.319 93.504,261.587 91.385,261.758 89.279 C 262.123 84.790,265.595 79.286,269.417 77.135 C 274.023 74.543,275.226 73.232,274.424 71.681 C 273.528 69.948,271.681 70.439,267.581 73.497 C 265.809 74.818,265.824 74.810,262.314 76.350 C 260.812 77.008,258.934 77.833,258.140 78.183 C 256.271 79.006,253.773 79.873,251.167 80.606 C 246.905 81.803,240.907 84.371,238.178 86.166 C 230.702 91.084,227.079 94.778,224.305 100.310 L 223.022 102.869 222.594 101.435 C 222.359 100.646,221.971 99.344,221.732 98.542 C 221.176 96.676,218.153 91.207,215.490 87.250 C 213.907 84.899,208.612 78.792,206.772 77.198 C 203.522 74.381,202.018 73.421,198.126 71.678 C 196.683 71.032,194.433 69.967,193.126 69.312 C 188.722 67.105,184.293 65.930,179.333 65.652 C 176.493 65.492,174.165 65.255,170.417 64.741 C 169.408 64.603,167.383 64.386,165.917 64.259 C 158.500 63.614,153.996 61.804,149.593 57.698 C 146.421 54.739,145.369 54.227,144.150 55.047 M160.941 67.430 C 162.119 67.667,164.126 67.928,165.401 68.011 C 166.676 68.093,167.838 68.197,167.984 68.241 C 168.695 68.457,175.253 69.188,177.833 69.338 C 183.490 69.668,187.126 70.560,191.250 72.629 C 192.258 73.135,194.664 74.273,196.597 75.160 C 203.282 78.225,209.444 84.269,214.363 92.583 C 216.970 96.989,217.850 98.710,218.275 100.229 C 218.509 101.066,218.911 102.425,219.169 103.250 C 220.237 106.664,221.211 111.946,221.058 113.500 C 220.377 120.438,221.535 123.748,224.097 122.186 C 225.146 121.546,225.248 121.050,225.267 116.500 C 225.308 106.878,226.658 102.094,230.697 97.255 C 232.937 94.571,239.277 89.618,242.632 87.931 C 244.129 87.178,250.003 84.904,251.669 84.432 C 254.010 83.769,257.061 82.754,258.667 82.104 C 260.366 81.416,260.283 81.364,259.666 82.724 C 258.550 85.187,258.135 86.892,257.835 90.250 C 257.737 91.350,257.475 93.337,257.254 94.667 C 257.032 95.996,256.729 97.946,256.581 99.000 C 255.265 108.367,250.398 118.286,245.343 121.905 C 242.779 123.740,237.430 126.298,234.008 127.324 C 233.325 127.529,232.013 128.034,231.092 128.447 C 230.170 128.860,228.380 129.635,227.113 130.170 C 219.555 133.361,216.961 136.741,216.928 143.441 L 216.917 145.798 215.750 145.906 C 215.108 145.965,214.243 146.056,213.828 146.107 L 213.072 146.200 213.136 142.975 C 213.251 137.215,212.547 135.151,209.261 131.612 C 205.750 127.830,203.812 126.292,201.234 125.239 C 199.855 124.676,197.469 123.575,194.667 122.210 C 193.063 121.428,191.159 120.535,190.438 120.225 C 188.979 119.599,186.733 118.413,185.333 117.530 C 184.228 116.833,179.116 111.706,178.082 110.257 C 176.365 107.851,174.154 103.400,173.608 101.250 C 173.248 99.833,172.411 95.567,172.087 93.500 C 171.076 87.055,167.019 78.095,162.876 73.162 C 162.066 72.196,161.034 70.809,160.583 70.078 C 160.132 69.348,159.479 68.359,159.132 67.882 C 158.506 67.023,158.360 66.727,158.650 66.906 C 158.732 66.957,159.763 67.193,160.941 67.430 M191.833 92.203 C 190.043 93.133,190.910 95.153,194.118 97.525 C 195.987 98.908,200.846 106.302,201.735 109.118 C 201.944 109.778,202.783 110.333,203.574 110.333 C 204.954 110.333,205.776 109.092,205.282 107.750 C 204.260 104.969,202.469 101.693,200.862 99.667 C 200.099 98.704,199.088 97.429,198.616 96.833 C 195.851 93.346,193.164 91.511,191.833 92.203 M239.602 101.348 C 238.995 101.826,238.720 102.416,238.321 104.094 C 238.134 104.884,237.907 105.722,237.818 105.957 C 237.501 106.792,234.441 111.259,233.793 111.833 C 231.956 113.461,233.789 116.073,235.967 114.930 C 237.120 114.325,240.898 108.874,241.492 106.958 C 242.784 102.792,242.833 102.084,241.882 101.336 C 241.303 100.880,240.190 100.886,239.602 101.348 M230.583 149.570 C 286.169 156.379,309.159 217.118,272.319 259.833 C 239.626 297.739,178.318 295.560,154.162 255.634 C 127.394 211.393,161.833 153.411,217.333 149.276 C 219.505 149.114,228.489 149.313,230.583 149.570 M228.777 166.341 C 225.780 166.844,223.576 168.003,220.972 170.445 C 219.792 171.551,218.510 172.426,217.417 172.870 C 211.237 175.382,207.471 175.265,203.833 172.450 C 203.054 171.846,201.903 170.992,201.274 170.551 L 200.132 169.750 198.074 169.695 C 191.916 169.530,186.237 174.215,184.931 180.539 C 183.936 185.357,183.330 186.578,180.878 188.700 C 179.489 189.903,176.956 190.709,172.083 191.499 C 168.237 192.123,166.032 193.255,163.333 195.992 C 160.601 198.764,160.217 199.867,160.659 203.675 C 161.088 207.370,161.752 209.781,163.180 212.833 C 165.662 218.135,165.804 221.910,163.758 228.171 C 161.059 236.427,160.980 239.240,163.294 244.662 C 164.834 248.272,166.603 250.140,171.417 253.240 C 174.172 255.015,174.676 255.379,175.883 256.467 C 176.543 257.062,177.546 257.916,178.112 258.363 C 178.998 259.064,179.263 259.413,180.015 260.879 C 190.610 281.505,214.894 286.893,232.041 272.423 C 232.751 271.824,233.411 271.333,233.508 271.333 C 233.606 271.333,234.000 271.193,234.384 271.022 C 235.351 270.592,236.452 270.761,238.750 271.693 C 242.283 273.125,244.186 273.186,246.745 271.949 C 249.628 270.555,251.673 267.647,251.992 264.486 C 252.220 262.223,254.214 259.871,256.282 259.426 C 257.810 259.097,259.559 256.698,260.939 253.038 C 261.559 251.395,261.419 249.344,260.495 246.504 C 259.740 244.184,259.698 243.272,260.248 241.075 C 261.276 236.967,262.080 236.015,265.575 234.765 C 270.126 233.139,271.732 230.558,271.701 224.917 C 271.671 219.191,271.084 217.878,267.086 214.590 C 261.867 210.297,260.829 205.712,263.667 199.498 C 265.385 195.738,265.459 192.739,263.891 190.458 C 261.645 187.188,256.940 184.434,252.583 183.839 C 251.850 183.738,250.950 183.585,250.583 183.499 C 250.217 183.412,249.588 183.339,249.187 183.337 C 246.340 183.322,243.664 182.020,242.386 180.027 C 241.087 178.002,240.980 177.584,241.034 174.771 C 241.149 168.874,235.761 165.169,228.777 166.341 M233.470 168.854 C 237.117 169.746,239.057 171.931,238.653 174.691 C 238.345 176.797,238.504 177.761,239.481 179.724 C 241.486 183.752,243.549 185.069,248.917 185.750 C 255.063 186.529,257.968 187.652,260.502 190.226 C 263.046 192.811,263.273 194.670,261.505 198.417 C 258.101 205.631,259.597 211.820,265.941 216.773 C 268.494 218.767,268.922 219.515,269.192 222.454 C 269.787 228.937,268.480 231.530,264.000 232.754 C 259.124 234.087,256.363 240.807,258.142 247.018 C 259.022 250.090,259.079 251.286,258.422 252.833 C 257.176 255.767,256.174 257.167,255.321 257.167 C 253.327 257.167,249.895 261.231,249.664 263.866 C 249.445 266.351,247.918 268.685,245.823 269.732 C 243.798 270.745,242.741 270.671,239.129 269.262 C 238.055 268.843,236.986 268.500,236.754 268.500 C 236.225 268.500,236.227 268.477,236.833 267.640 C 237.108 267.261,237.333 266.889,237.333 266.815 C 237.333 266.634,239.825 263.327,240.247 262.948 C 240.432 262.783,241.483 262.213,242.583 261.682 C 244.751 260.636,245.607 259.901,246.708 258.141 C 248.264 255.651,248.092 254.491,245.837 252.264 C 243.811 250.263,243.768 250.012,243.810 240.355 C 243.855 230.176,243.672 228.636,241.662 222.250 C 239.790 216.302,235.096 210.258,230.911 208.407 C 227.367 206.840,223.307 205.531,219.333 204.675 C 197.974 200.076,177.663 217.093,176.178 240.831 C 175.905 245.193,176.597 251.793,177.602 254.405 C 177.681 254.612,177.256 254.373,176.404 253.732 C 175.678 253.185,174.221 252.183,173.167 251.506 C 168.805 248.706,167.144 247.144,166.012 244.777 C 163.457 239.440,163.469 236.699,166.085 228.750 C 168.327 221.935,168.110 217.486,165.245 211.583 C 164.350 209.740,164.115 209.013,163.517 206.250 C 162.575 201.888,162.658 200.551,163.979 198.818 C 166.130 195.997,168.789 194.474,172.667 193.841 C 182.412 192.251,185.399 189.789,187.081 181.959 C 187.787 178.670,188.481 177.308,190.427 175.392 C 194.312 171.568,198.303 170.888,201.276 173.546 C 202.680 174.800,204.893 176.138,206.167 176.503 C 211.016 177.891,218.461 176.064,222.177 172.573 C 225.921 169.057,229.493 167.881,233.470 168.854 M217.667 208.665 C 218.629 208.864,219.904 209.127,220.500 209.248 C 223.626 209.883,227.977 211.517,230.180 212.881 C 233.067 214.669,236.197 219.253,237.715 223.917 C 239.373 229.011,239.503 230.196,239.568 240.750 C 239.632 251.207,239.837 252.299,242.179 254.693 C 242.722 255.248,243.167 255.740,243.167 255.785 C 243.167 256.237,241.941 257.287,240.841 257.777 C 238.204 258.953,237.304 259.639,235.845 261.583 C 235.225 262.408,234.587 263.193,234.425 263.327 C 234.264 263.460,233.961 263.948,233.752 264.410 C 233.486 265.000,232.833 265.781,231.562 267.030 C 211.744 286.507,181.440 273.215,180.385 244.583 C 179.577 222.662,198.270 204.654,217.667 208.665 M227.250 244.604 C 226.883 244.630,223.733 244.769,220.250 244.914 C 210.887 245.303,210.833 245.314,210.833 246.917 C 210.833 248.603,211.036 248.635,219.417 248.252 C 230.026 247.769,229.738 247.802,230.162 247.009 C 230.809 245.800,229.831 244.438,228.380 244.529 C 228.125 244.545,227.617 244.579,227.250 244.604 M170.278 277.620 C 172.671 279.268,175.942 281.198,178.711 282.596 C 180.108 283.300,181.277 283.900,181.310 283.928 C 181.342 283.957,180.830 284.603,180.170 285.365 C 179.511 286.127,178.758 286.999,178.499 287.303 C 177.501 288.471,176.759 287.865,175.529 284.875 C 174.769 283.029,172.647 283.066,170.594 284.961 L 169.604 285.874 168.662 285.789 C 167.343 285.669,166.788 285.326,166.109 284.211 C 163.774 280.380,157.476 282.465,159.415 286.427 C 159.994 287.612,160.209 287.447,156.688 288.530 C 154.404 289.232,153.192 290.877,153.648 292.656 C 153.911 293.683,153.593 295.039,152.873 295.955 C 151.718 297.424,151.515 298.714,152.249 299.910 C 152.472 300.273,152.783 301.113,152.939 301.776 L 153.223 302.981 152.776 303.657 C 151.255 305.956,151.781 308.579,153.902 309.266 C 155.617 309.822,155.991 310.592,155.583 312.724 C 154.737 317.146,157.806 319.666,160.769 316.983 C 161.793 316.055,162.076 316.002,162.920 316.575 C 165.570 318.373,169.002 315.575,167.917 312.500 C 167.548 311.456,167.584 310.833,168.011 310.833 C 169.371 310.833,170.108 308.684,169.412 306.750 C 169.001 305.610,169.072 305.387,169.994 304.919 C 171.478 304.167,171.424 304.044,171.166 307.572 C 170.993 309.938,171.181 313.824,171.568 315.870 L 171.797 317.080 170.999 318.001 C 161.444 329.031,150.267 320.992,150.259 303.083 C 150.252 288.200,157.606 276.423,166.833 276.542 L 168.750 276.567 170.278 277.620 M163.612 284.747 C 163.806 284.883,164.158 285.323,164.393 285.724 C 166.020 288.502,169.567 288.945,172.064 286.684 C 173.054 285.788,173.450 285.644,173.603 286.125 C 174.132 287.795,175.739 290.000,176.427 290.000 C 176.624 290.000,176.542 290.248,176.081 291.042 C 174.537 293.699,173.170 297.059,172.313 300.306 L 171.778 302.333 170.931 302.333 C 170.330 302.334,169.792 302.477,169.083 302.825 C 166.887 303.903,166.434 304.962,167.169 307.307 C 167.587 308.641,167.591 308.607,167.021 308.721 C 165.558 309.013,164.978 310.567,165.585 312.568 C 166.182 314.536,165.305 315.437,163.804 314.397 C 162.508 313.498,160.813 313.741,159.582 315.001 C 157.957 316.666,157.436 315.725,157.939 312.034 C 158.256 309.708,157.247 308.037,155.083 307.307 C 153.967 306.930,153.896 306.420,154.738 304.813 C 155.586 303.193,155.513 301.529,154.497 299.359 C 153.961 298.212,153.956 298.243,154.776 297.221 C 155.630 296.158,156.271 293.618,155.976 292.468 C 155.710 291.433,156.086 291.003,157.631 290.575 C 160.508 289.779,161.070 289.510,161.735 288.613 C 162.228 287.947,162.215 286.602,161.708 285.891 C 160.907 284.767,162.378 283.883,163.612 284.747 M187.083 286.194 C 189.560 287.055,189.548 287.047,189.410 287.904 C 189.222 289.075,188.533 289.717,186.198 290.901 C 184.877 291.570,182.046 293.922,181.667 294.666 C 181.236 295.510,181.236 296.745,181.667 297.750 C 182.453 299.584,182.012 301.588,180.560 302.776 C 177.585 305.212,176.294 308.923,177.526 311.500 C 178.865 314.301,179.061 315.886,178.313 317.870 C 176.867 321.708,178.573 324.232,182.917 324.682 C 186.289 325.031,187.167 325.714,187.167 327.987 C 187.167 334.137,191.240 336.376,196.230 332.970 C 198.407 331.484,200.479 331.458,202.236 332.895 C 205.655 335.692,209.524 335.254,211.256 331.874 C 211.597 331.209,212.106 330.440,212.386 330.166 L 212.897 329.667 215.323 329.666 C 218.666 329.665,219.089 329.386,219.509 326.902 C 219.617 326.268,219.763 325.687,219.835 325.609 C 219.930 325.506,222.462 327.030,223.148 327.603 C 223.311 327.740,221.602 329.756,219.846 331.500 C 207.632 343.632,188.956 341.697,179.627 327.333 C 171.580 314.944,173.322 297.388,183.650 286.792 C 184.342 286.081,184.948 285.500,184.996 285.499 C 185.044 285.499,185.983 285.812,187.083 286.194 M196.417 288.832 C 201.984 290.009,206.755 290.500,212.617 290.500 L 216.167 290.500 216.167 291.442 C 216.167 293.333,217.411 294.935,219.933 296.291 C 223.682 298.308,224.648 301.453,222.141 303.481 C 218.871 306.127,218.814 309.892,222.019 311.510 C 222.901 311.955,223.157 312.279,223.164 312.960 C 223.166 313.076,222.755 313.353,222.252 313.575 C 221.162 314.057,219.843 315.322,219.412 316.298 C 219.242 316.684,219.054 317.000,218.995 317.000 C 218.908 317.000,207.036 309.255,206.864 309.086 C 206.835 309.057,207.031 308.595,207.299 308.059 C 211.158 300.339,208.268 293.097,201.333 293.109 C 192.304 293.125,182.494 305.338,184.719 313.791 C 186.531 320.678,195.061 321.273,202.043 315.000 L 203.002 314.138 203.470 314.532 C 203.727 314.749,207.008 316.941,210.761 319.403 C 214.513 321.866,217.632 323.926,217.692 323.982 C 217.752 324.038,217.631 324.833,217.424 325.750 L 217.048 327.417 214.888 327.356 C 211.808 327.269,210.797 327.873,209.342 330.669 C 208.449 332.385,208.078 332.606,206.536 332.337 C 205.139 332.094,204.449 331.802,203.568 331.080 C 201.387 329.293,197.484 329.158,195.364 330.798 C 191.715 333.618,189.500 332.540,189.500 327.943 C 189.500 324.551,187.546 322.846,183.167 322.417 C 180.201 322.126,179.528 321.137,180.500 318.500 C 181.326 316.260,180.897 312.565,179.578 310.552 C 178.817 309.391,180.063 305.902,181.604 304.876 C 184.055 303.247,185.025 299.848,183.836 297.060 C 183.516 296.310,183.498 296.151,183.694 295.786 C 183.977 295.255,186.479 293.267,187.538 292.731 C 190.378 291.292,191.082 290.485,191.759 287.894 C 191.793 287.763,192.290 287.830,193.362 288.110 C 194.217 288.332,195.592 288.657,196.417 288.832 M225.045 291.125 C 230.259 299.784,231.010 311.812,226.914 321.073 L 226.507 321.994 223.962 320.321 C 220.712 318.186,220.925 318.428,221.403 317.396 C 221.842 316.449,222.525 315.865,223.704 315.432 C 226.546 314.387,225.905 310.974,222.522 309.133 C 221.394 308.519,221.890 306.879,223.746 305.083 C 227.222 301.722,226.138 296.984,221.312 294.434 C 219.054 293.241,218.333 292.417,218.333 291.026 L 218.333 290.373 219.942 290.252 C 220.827 290.186,221.896 290.073,222.317 290.002 C 224.172 289.688,224.182 289.693,225.045 291.125 M160.203 292.777 C 155.839 294.928,156.097 305.873,160.521 306.298 C 163.224 306.557,165.167 303.467,165.167 298.909 C 165.167 294.351,162.840 291.478,160.203 292.777 M162.221 295.042 C 163.772 297.121,163.487 301.969,161.700 303.875 C 159.595 306.122,158.067 299.731,159.836 296.077 C 160.603 294.493,161.516 294.097,162.221 295.042 M203.592 297.080 C 208.492 299.951,203.663 311.265,195.979 314.914 C 189.232 318.118,185.745 313.410,189.318 305.917 C 192.393 299.466,199.819 294.868,203.592 297.080 M206.386 311.527 C 206.586 311.633,214.250 316.609,223.417 322.584 C 251.059 340.602,259.241 345.931,259.440 346.050 C 259.555 346.119,259.897 345.754,260.307 345.123 C 264.459 338.753,273.134 339.502,276.685 346.536 C 277.458 348.068,277.183 349.167,276.026 349.167 C 275.445 349.167,275.191 348.890,274.498 347.506 C 273.240 344.992,270.885 343.330,268.395 343.199 C 261.706 342.845,258.344 351.929,263.101 357.502 C 263.941 358.487,264.020 358.995,263.424 359.591 C 262.786 360.229,262.370 360.117,261.338 359.032 C 259.183 356.766,258.165 352.982,258.667 349.107 L 258.750 348.464 232.083 331.074 C 217.417 321.510,205.248 313.536,205.042 313.355 C 203.998 312.437,205.150 310.870,206.386 311.527 M207.075 342.826 C 213.144 346.827,216.220 359.508,211.119 359.498 C 206.545 359.490,200.591 350.276,201.496 344.608 C 201.746 343.046,201.775 343.000,202.510 343.000 C 204.159 343.000,204.658 344.207,203.750 346.000 C 203.002 347.477,203.401 349.667,204.419 349.667 C 205.362 349.667,205.967 351.057,205.485 352.116 C 204.766 353.695,205.502 354.833,207.242 354.833 C 207.933 354.833,208.167 355.096,208.167 355.874 C 208.167 357.376,210.116 357.897,211.198 356.685 C 211.923 355.874,211.778 354.142,210.917 353.334 C 210.394 352.842,210.394 352.522,210.920 352.024 C 211.990 351.008,211.084 349.191,209.077 348.331 C 208.254 347.978,207.793 347.307,208.138 346.962 C 208.616 346.484,208.258 345.450,207.399 344.833 C 207.080 344.604,206.668 344.130,206.484 343.780 C 206.266 343.367,205.961 343.076,205.616 342.952 L 205.083 342.762 205.583 342.651 C 206.402 342.468,206.560 342.487,207.075 342.826 M197.655 342.773 L 198.185 342.879 198.075 343.814 C 197.942 344.952,197.704 345.167,196.574 345.167 C 195.587 345.167,195.003 345.522,194.670 346.325 C 194.473 346.800,194.488 347.104,194.760 348.214 C 194.904 348.797,194.521 349.261,193.781 349.401 C 191.985 349.740,191.225 351.592,192.400 352.767 C 193.165 353.532,193.926 353.542,194.848 352.802 C 195.462 352.308,195.549 352.284,196.058 352.468 C 197.270 352.906,198.034 352.498,198.287 351.278 C 198.468 350.410,198.642 350.444,198.994 351.417 C 199.160 351.875,199.349 352.381,199.415 352.542 C 199.497 352.740,199.459 352.833,199.297 352.833 C 199.166 352.833,198.614 353.181,198.071 353.607 C 194.293 356.566,190.767 355.589,190.764 351.583 C 190.763 348.717,192.421 345.836,195.101 344.051 C 195.569 343.740,196.050 343.301,196.171 343.076 C 196.399 342.649,196.715 342.585,197.655 342.773 M206.590 345.607 C 207.207 346.102,207.220 346.135,207.011 346.639 C 206.611 347.607,207.256 348.700,208.647 349.409 C 210.278 350.242,210.581 350.922,209.682 351.736 C 209.171 352.199,209.229 352.990,209.831 353.747 C 210.721 354.866,210.825 355.912,210.065 356.103 C 209.400 356.270,209.167 356.074,209.167 355.348 C 209.167 354.319,208.640 353.822,207.409 353.690 C 206.286 353.569,206.066 353.229,206.594 352.425 C 207.301 351.344,206.608 349.490,205.249 348.833 C 204.327 348.386,204.230 347.612,204.915 346.142 C 205.143 345.651,205.331 344.988,205.332 344.667 L 205.335 344.083 205.643 344.590 C 205.813 344.868,206.239 345.326,206.590 345.607 M198.109 347.708 C 198.276 349.140,198.266 349.266,197.977 349.468 C 197.564 349.757,197.167 350.546,197.167 351.075 C 197.167 351.512,196.639 351.694,196.417 351.333 C 196.181 350.952,195.025 351.155,194.422 351.685 C 193.469 352.521,192.604 352.051,193.166 351.001 C 193.260 350.826,193.727 350.576,194.235 350.428 C 195.781 349.979,196.277 349.047,195.807 347.478 C 195.530 346.554,195.905 346.167,197.074 346.167 L 197.930 346.167 198.109 347.708 " stroke="none" fill="#070707" fill-rule="evenodd"></path><path id="path4" d="M145.667 41.907 C 141.198 42.727,137.761 45.516,134.909 50.637 C 132.307 55.308,133.397 63.323,136.931 65.511 C 141.321 68.230,142.777 69.736,144.421 73.259 C 146.350 77.393,146.765 79.601,147.001 87.000 C 147.203 93.351,147.512 95.889,148.408 98.583 C 148.621 99.225,148.921 100.153,149.075 100.646 C 149.359 101.559,150.523 104.061,152.804 108.664 C 153.966 111.009,155.325 113.384,157.192 116.331 C 157.569 116.925,158.252 118.087,158.711 118.914 C 159.906 121.067,162.652 124.547,164.370 126.086 C 165.414 127.023,166.930 128.311,167.823 129.022 C 168.516 129.573,172.405 132.000,172.596 132.000 C 172.640 132.000,173.668 132.478,174.880 133.063 C 177.303 134.232,177.305 134.233,179.333 134.601 C 180.112 134.743,181.125 134.928,181.583 135.012 C 182.042 135.096,185.342 135.167,188.917 135.170 C 197.256 135.177,199.510 135.509,201.738 137.059 L 202.227 137.399 201.738 137.534 C 201.470 137.609,200.575 137.778,199.750 137.910 C 196.973 138.355,192.149 139.481,189.583 140.282 C 188.131 140.735,185.763 141.520,185.417 141.662 C 185.233 141.737,184.408 142.041,183.583 142.338 C 182.758 142.634,181.746 143.022,181.333 143.200 C 180.496 143.562,179.587 143.951,179.083 144.163 C 178.289 144.498,171.819 147.718,170.833 148.269 C 169.263 149.147,166.930 150.544,166.833 150.666 C 166.787 150.723,166.262 151.063,165.667 151.420 C 165.071 151.778,164.508 152.134,164.417 152.211 C 164.325 152.289,163.612 152.802,162.833 153.352 C 160.858 154.746,160.655 154.893,160.440 155.091 C 160.335 155.188,159.725 155.666,159.083 156.155 C 158.442 156.644,157.879 157.090,157.833 157.147 C 157.787 157.204,157.375 157.549,156.917 157.914 C 153.889 160.326,148.413 165.799,145.914 168.910 C 145.549 169.364,145.137 169.858,145.000 170.006 C 144.552 170.490,144.086 171.072,143.672 171.667 C 143.449 171.987,143.218 172.287,143.158 172.333 C 143.052 172.416,142.093 173.752,140.647 175.833 C 139.825 177.016,137.925 180.023,137.330 181.083 C 135.436 184.456,134.013 187.244,133.160 189.250 C 133.082 189.433,132.860 189.958,132.667 190.417 C 132.473 190.875,132.246 191.400,132.162 191.583 C 131.693 192.606,130.200 196.853,129.672 198.667 C 129.472 199.354,129.242 200.104,129.161 200.333 C 129.079 200.563,128.859 201.425,128.672 202.250 C 128.484 203.075,128.260 204.012,128.173 204.333 C 125.975 212.425,125.760 226.080,127.685 235.333 C 128.099 237.323,128.518 239.126,128.769 240.000 C 129.361 242.055,130.035 244.270,130.163 244.583 C 130.237 244.767,130.540 245.592,130.836 246.417 C 131.131 247.242,131.626 248.467,131.936 249.140 C 132.246 249.813,132.500 250.402,132.500 250.450 C 132.500 251.674,140.056 264.230,141.657 265.667 C 141.708 265.712,142.050 266.125,142.416 266.583 C 143.462 267.893,143.827 268.306,145.250 269.790 C 146.315 270.901,146.657 271.387,146.951 272.207 C 147.377 273.395,147.480 273.175,145.610 275.083 C 144.892 275.817,144.182 276.623,144.033 276.875 C 143.884 277.127,143.715 277.333,143.658 277.333 C 143.602 277.333,143.262 277.765,142.904 278.292 C 142.545 278.819,142.176 279.341,142.084 279.453 C 141.992 279.564,141.839 279.751,141.743 279.869 C 140.768 281.073,138.056 286.285,137.167 288.667 C 136.978 289.171,136.759 289.733,136.680 289.917 C 136.294 290.808,135.120 294.662,134.828 296.000 C 131.009 313.464,135.325 328.131,145.750 333.123 C 146.208 333.342,147.033 333.755,147.583 334.041 C 148.133 334.326,149.108 334.700,149.750 334.871 C 150.392 335.042,151.326 335.292,151.827 335.425 C 152.327 335.558,153.190 335.666,153.743 335.666 C 154.297 335.665,155.336 335.754,156.052 335.863 C 158.284 336.202,161.600 335.580,164.331 334.310 C 165.109 333.948,165.770 333.725,165.800 333.816 C 165.830 333.906,166.128 334.340,166.463 334.781 C 166.798 335.222,167.129 335.658,167.199 335.750 C 168.486 337.447,170.501 339.451,173.318 341.833 C 173.806 342.246,174.297 342.671,174.411 342.779 C 174.766 343.115,177.201 344.667,177.374 344.667 C 177.473 344.667,177.500 345.012,177.442 345.542 C 176.837 351.041,177.390 358.139,178.704 361.750 C 179.117 362.886,180.502 366.002,180.667 366.167 C 180.713 366.212,180.896 366.537,181.074 366.887 C 181.680 368.077,183.674 369.910,185.094 370.581 C 189.592 372.709,193.984 371.663,197.890 367.535 L 198.566 366.821 199.184 367.543 C 199.524 367.941,200.128 368.487,200.526 368.758 C 200.924 369.028,201.287 369.292,201.333 369.344 C 201.489 369.523,203.412 370.519,204.500 370.985 C 211.185 373.848,219.620 370.737,222.808 364.232 C 224.769 360.229,224.931 354.325,223.267 347.417 C 222.753 345.279,222.728 345.065,222.978 344.868 C 223.128 344.749,224.075 344.042,225.083 343.297 C 226.092 342.551,226.954 341.898,227.000 341.846 C 227.632 341.119,227.779 341.104,228.764 341.660 C 229.588 342.125,231.394 343.351,231.935 343.812 C 232.373 344.185,235.982 346.491,236.667 346.834 C 237.274 347.139,239.331 348.562,240.285 349.336 C 240.395 349.426,240.522 349.500,240.565 349.500 C 240.639 349.500,243.188 351.149,244.198 351.851 C 244.445 352.022,245.420 352.679,246.365 353.311 C 248.454 354.708,248.766 355.038,248.911 356.000 C 249.033 356.815,249.436 358.263,249.654 358.672 C 249.729 358.813,249.845 359.172,249.910 359.471 C 250.523 362.262,256.162 369.702,258.585 370.917 C 258.951 371.100,259.287 371.287,259.333 371.333 C 259.417 371.417,259.780 371.629,260.731 372.148 C 267.084 375.616,273.306 370.770,274.420 361.486 L 274.532 360.555 276.664 360.365 C 285.531 359.576,290.387 351.121,286.970 342.421 C 284.284 335.581,281.307 332.960,273.794 330.820 C 270.633 329.919,264.601 330.760,261.437 332.542 C 260.320 333.171,260.405 333.202,257.561 331.134 C 257.115 330.809,256.246 330.274,255.631 329.944 C 255.015 329.614,253.890 328.956,253.131 328.483 C 252.371 328.010,251.422 327.437,251.022 327.212 C 250.025 326.649,248.387 325.615,247.583 325.040 C 247.217 324.778,246.279 324.180,245.500 323.711 C 244.721 323.242,243.565 322.518,242.933 322.101 C 242.300 321.685,241.724 321.323,241.653 321.297 C 241.582 321.271,241.628 320.855,241.754 320.372 C 242.666 316.876,242.919 303.996,242.185 298.472 L 242.059 297.527 242.738 297.357 C 243.111 297.264,244.392 296.949,245.583 296.657 C 246.775 296.365,248.050 296.033,248.417 295.918 C 250.573 295.247,251.541 294.929,252.583 294.552 C 254.161 293.980,256.637 293.031,257.250 292.763 C 257.525 292.643,258.162 292.368,258.667 292.153 C 260.474 291.381,265.954 288.529,267.917 287.339 C 269.767 286.216,273.808 283.555,274.000 283.333 C 274.046 283.280,275.058 282.496,276.250 281.590 C 277.442 280.684,278.454 279.899,278.500 279.845 C 278.546 279.791,279.180 279.223,279.908 278.582 C 298.894 261.885,309.382 238.935,309.365 214.129 C 309.358 204.785,308.153 197.335,305.231 188.583 C 300.557 174.583,291.211 161.346,279.984 152.824 C 279.214 152.240,278.508 151.700,278.417 151.625 C 277.749 151.078,272.408 147.500,272.260 147.500 C 272.224 147.500,271.644 147.176,270.972 146.780 C 269.439 145.877,266.192 144.238,264.333 143.427 C 263.554 143.088,262.767 142.741,262.583 142.656 C 261.351 142.087,256.326 140.328,254.708 139.899 C 254.227 139.771,253.402 139.549,252.875 139.405 C 250.641 138.794,248.453 138.330,245.833 137.912 C 243.798 137.588,243.796 137.587,244.583 137.261 C 244.950 137.109,245.400 136.915,245.583 136.829 C 245.767 136.743,246.217 136.601,246.583 136.513 C 246.950 136.426,247.887 136.197,248.667 136.005 C 252.375 135.093,254.042 134.716,255.000 134.574 C 256.215 134.393,258.336 133.330,263.083 130.523 C 264.092 129.927,264.954 129.397,265.000 129.345 C 265.046 129.293,265.434 128.968,265.863 128.624 C 271.949 123.734,275.106 115.444,273.177 109.417 C 272.538 107.421,271.651 104.113,271.568 103.417 C 271.038 99.001,272.393 96.972,276.917 95.410 C 283.606 93.098,287.333 87.802,287.333 80.609 L 287.333 78.016 288.070 77.216 C 288.474 76.776,288.972 76.229,289.176 76.000 C 293.807 70.786,294.042 62.552,289.683 58.220 C 286.097 54.658,280.498 53.419,275.833 55.156 C 275.604 55.241,274.967 55.436,274.417 55.588 C 273.081 55.957,271.161 56.886,269.833 57.805 C 268.053 59.038,267.103 59.767,266.750 60.170 C 265.178 61.967,264.374 62.175,261.388 61.558 C 256.862 60.622,252.327 60.893,249.717 62.254 C 249.460 62.388,249.196 62.498,249.131 62.499 C 248.871 62.501,246.364 64.106,245.500 64.823 C 244.467 65.680,244.334 65.838,243.458 67.245 C 242.887 68.162,242.631 68.759,241.743 71.250 C 241.418 72.160,239.621 74.176,238.417 74.981 C 237.425 75.644,236.808 75.806,233.898 76.165 C 228.567 76.823,226.900 77.215,224.833 78.296 C 223.871 78.800,222.990 79.286,222.876 79.376 C 222.636 79.565,220.838 78.468,220.146 77.710 C 218.827 76.267,217.877 74.479,217.244 72.250 C 217.035 71.517,216.675 70.392,216.444 69.750 C 216.212 69.108,215.764 67.871,215.448 67.000 C 213.427 61.432,209.570 58.571,201.417 56.594 C 200.775 56.438,199.950 56.222,199.583 56.114 C 199.098 55.970,195.703 55.917,187.083 55.917 C 180.575 55.917,175.165 55.861,175.060 55.793 C 174.956 55.726,173.944 55.593,172.810 55.499 C 170.787 55.330,170.335 55.257,168.175 54.745 C 165.035 54.000,162.122 52.070,160.645 49.755 C 159.378 47.768,155.713 44.245,153.570 42.954 C 151.721 41.840,148.418 41.402,145.667 41.907 M146.888 55.288 C 147.752 55.887,150.242 58.063,150.528 58.471 C 150.650 58.644,151.484 59.317,152.380 59.966 C 155.494 62.220,160.619 63.814,165.912 64.175 C 167.193 64.263,168.355 64.369,168.495 64.412 C 169.213 64.633,175.643 65.340,178.371 65.500 C 180.087 65.600,182.112 65.789,182.871 65.920 C 184.127 66.138,184.695 66.263,187.000 66.830 C 188.583 67.220,190.338 67.904,192.667 69.038 C 193.996 69.686,196.541 70.879,198.323 71.689 C 205.941 75.151,212.801 82.048,218.445 91.917 C 219.231 93.292,220.155 94.904,220.498 95.500 C 221.240 96.790,221.695 97.982,222.269 100.138 C 222.503 101.017,222.791 101.964,222.910 102.243 L 223.126 102.750 223.323 102.250 C 225.754 96.100,230.280 91.188,238.333 85.960 C 241.018 84.217,246.393 81.970,251.593 80.416 C 254.692 79.490,257.524 78.436,260.000 77.287 C 260.688 76.969,262.000 76.390,262.917 76.001 C 265.381 74.956,265.745 74.751,267.750 73.279 C 271.334 70.647,272.989 70.122,274.159 71.243 C 275.716 72.734,274.331 74.499,269.549 77.114 C 265.303 79.435,262.167 84.840,261.684 90.667 C 261.582 91.904,261.353 93.667,261.175 94.583 C 260.998 95.500,260.772 96.925,260.674 97.750 C 260.454 99.597,260.031 102.218,259.827 103.000 C 259.743 103.321,259.519 104.221,259.329 105.000 C 257.874 110.946,253.645 119.253,250.264 122.807 C 247.601 125.604,241.170 129.134,235.500 130.909 C 234.362 131.266,232.329 132.084,231.333 132.585 C 230.921 132.793,229.632 133.351,228.470 133.825 C 224.862 135.295,223.109 136.447,222.247 137.917 C 221.367 139.415,220.666 141.946,220.669 143.607 C 220.673 145.586,220.470 145.444,223.473 145.574 C 232.789 145.978,239.114 147.023,246.083 149.310 C 275.092 158.830,293.520 183.706,293.573 213.417 C 293.628 244.016,273.781 272.335,243.761 284.493 C 237.642 286.971,234.621 287.783,230.083 288.168 C 227.593 288.379,227.167 288.558,227.167 289.395 C 227.167 290.086,227.652 290.556,228.347 290.536 C 228.837 290.522,228.896 290.596,229.616 292.126 C 234.080 301.615,234.267 312.797,230.125 322.595 L 229.556 323.940 231.570 325.257 C 234.883 327.425,248.719 336.526,255.470 340.979 L 259.691 343.763 260.887 342.589 C 266.805 336.781,276.540 339.550,279.246 347.810 C 280.383 351.280,276.390 353.846,273.893 351.250 C 273.514 350.855,273.109 350.244,272.995 349.891 C 272.285 347.704,270.378 346.133,268.410 346.115 C 264.125 346.074,262.118 352.457,265.192 356.346 C 267.905 359.778,264.862 363.899,261.260 361.673 C 258.910 360.220,256.702 354.615,257.080 351.062 L 257.189 350.041 255.053 348.628 C 253.878 347.850,251.492 346.278,249.750 345.134 C 248.008 343.990,245.008 342.017,243.083 340.750 C 229.049 331.512,226.422 329.793,226.250 329.736 C 226.158 329.706,225.786 330.097,225.422 330.604 C 222.540 334.626,217.160 338.782,212.167 340.843 C 210.886 341.371,210.891 341.354,211.782 342.331 C 217.478 348.576,219.000 357.906,214.929 361.626 C 211.511 364.751,205.854 362.694,201.745 356.833 C 201.392 356.329,201.082 355.887,201.056 355.851 C 201.030 355.816,200.613 356.088,200.129 356.456 C 196.193 359.453,192.140 359.693,189.360 357.092 C 185.793 353.756,186.743 346.928,191.396 342.457 C 191.849 342.022,192.190 341.638,192.152 341.605 C 192.114 341.572,191.637 341.380,191.090 341.179 C 183.247 338.283,176.452 331.142,173.239 322.417 C 172.808 321.248,172.866 321.256,171.838 322.230 C 163.551 330.075,152.810 326.818,148.608 315.184 C 142.799 299.105,149.610 278.488,162.378 273.501 C 163.954 272.885,163.911 271.839,162.267 270.798 C 158.308 268.289,151.343 258.835,147.682 251.000 C 127.809 208.471,157.405 156.550,206.917 147.084 L 208.417 146.797 208.825 146.024 C 209.701 144.362,209.388 138.340,208.332 136.545 C 207.074 134.407,202.927 130.481,200.750 129.366 C 199.155 128.550,196.899 127.500,196.740 127.500 C 196.677 127.500,195.116 126.758,193.271 125.852 C 191.426 124.945,189.504 124.031,189.000 123.820 C 187.804 123.319,185.259 122.003,183.596 121.026 C 182.026 120.104,176.728 114.923,175.102 112.721 C 174.217 111.522,173.734 110.716,171.927 107.417 C 170.365 104.566,169.324 100.776,168.248 94.020 C 167.644 90.230,167.151 88.768,164.771 83.712 C 162.830 79.587,161.576 77.549,159.618 75.333 C 159.172 74.829,158.390 73.779,157.879 73.000 C 157.369 72.221,156.624 71.083,156.224 70.472 C 155.474 69.326,154.805 68.601,152.242 66.161 C 151.420 65.378,150.192 64.103,149.513 63.327 C 148.834 62.551,147.563 61.354,146.689 60.667 C 144.379 58.849,143.332 57.560,143.337 56.540 C 143.346 54.676,145.108 54.054,146.888 55.288 M208.751 208.439 C 188.316 211.055,175.167 234.483,182.428 255.342 C 189.640 276.063,213.150 282.758,229.636 268.787 C 231.623 267.103,233.470 265.065,233.664 264.341 C 233.756 264.003,234.125 263.453,234.513 263.079 C 234.890 262.715,235.487 261.997,235.839 261.484 C 236.865 259.986,238.037 259.055,240.250 257.981 C 241.858 257.200,242.338 256.884,242.700 256.365 L 243.150 255.720 242.388 254.985 C 239.759 252.448,239.451 250.838,239.421 239.500 C 239.396 229.972,239.279 228.916,237.705 224.083 C 236.175 219.387,233.161 214.896,230.314 213.071 C 225.025 209.681,215.325 207.597,208.751 208.439 M229.588 244.699 C 230.769 245.237,230.748 247.098,229.554 247.654 C 229.238 247.802,227.442 247.947,224.083 248.095 C 221.333 248.217,217.556 248.393,215.689 248.486 C 211.341 248.702,210.409 248.341,210.741 246.570 C 210.989 245.253,211.059 245.239,219.000 244.916 C 222.529 244.772,225.567 244.630,225.750 244.600 C 226.639 244.454,229.196 244.520,229.588 244.699 M161.656 284.808 L 161.275 285.117 161.668 285.668 C 163.242 287.879,161.829 289.588,157.535 290.670 C 156.432 290.947,155.706 291.672,155.965 292.239 C 156.439 293.280,155.831 295.953,154.820 297.265 C 154.036 298.284,154.041 298.195,154.680 299.559 C 155.502 301.316,155.566 303.389,154.840 304.772 C 153.975 306.418,154.038 306.806,155.244 307.277 C 157.412 308.126,158.097 309.304,157.926 311.892 C 157.703 315.261,157.699 315.206,158.194 315.485 C 158.623 315.727,158.663 315.712,159.383 315.049 C 160.429 314.084,160.994 313.833,162.117 313.834 C 163.051 313.835,163.299 313.930,164.373 314.704 C 165.042 315.185,166.026 314.134,165.692 313.296 C 165.572 312.996,165.432 312.096,165.381 311.297 L 165.288 309.843 165.815 309.350 C 166.105 309.080,166.565 308.809,166.838 308.749 C 167.424 308.620,167.469 308.292,167.064 307.102 C 166.215 304.611,167.837 302.532,170.873 302.219 L 171.803 302.123 172.146 300.687 C 172.857 297.715,174.168 294.377,175.748 291.521 C 176.596 289.989,176.592 290.000,176.250 290.000 C 175.599 290.000,174.199 288.073,173.676 286.458 C 173.415 285.649,173.291 285.668,172.227 286.674 C 169.768 289.000,165.986 288.563,164.310 285.760 C 163.555 284.498,162.504 284.121,161.656 284.808 M191.665 288.542 C 191.198 290.373,190.490 291.184,188.357 292.333 C 187.591 292.746,186.223 293.665,185.316 294.376 C 183.481 295.814,183.473 295.834,184.000 297.333 C 185.005 300.189,183.997 303.339,181.538 305.031 C 180.047 306.057,178.975 309.133,179.644 310.465 C 181.142 313.451,181.455 316.297,180.542 318.639 C 179.541 321.206,180.282 322.067,183.833 322.465 C 187.654 322.893,189.479 324.549,189.493 327.599 C 189.503 329.734,190.109 331.531,190.997 332.055 C 191.972 332.631,192.918 332.368,195.069 330.922 C 197.645 329.190,200.912 329.048,203.015 330.577 C 204.558 331.699,204.862 331.871,205.691 332.092 C 207.778 332.647,208.326 332.414,209.330 330.543 C 210.776 327.850,211.449 327.444,214.659 327.333 L 217.069 327.250 217.356 325.833 C 217.514 325.054,217.648 324.329,217.655 324.221 C 217.661 324.114,217.160 323.692,216.542 323.284 C 215.923 322.876,213.954 321.583,212.167 320.411 C 204.602 315.450,203.641 314.807,203.349 314.516 C 203.052 314.218,203.014 314.234,202.063 315.046 C 196.427 319.860,190.590 320.865,186.939 317.651 C 180.140 311.667,187.729 296.119,198.810 293.326 C 207.044 291.251,211.633 298.824,207.527 307.711 C 207.006 308.841,206.915 309.163,207.101 309.234 C 207.362 309.334,208.045 309.776,214.541 314.055 L 218.998 316.990 219.354 316.292 C 220.074 314.881,221.401 313.680,222.542 313.407 C 223.416 313.198,223.071 311.905,222.059 311.597 C 218.684 310.571,218.980 305.429,222.547 303.092 C 224.703 301.679,223.228 298.141,219.675 296.204 C 217.313 294.917,216.001 293.197,215.999 291.385 L 215.998 290.583 211.874 290.556 C 205.296 290.514,199.109 289.712,193.253 288.145 C 191.765 287.746,191.875 287.719,191.665 288.542 M162.833 292.890 C 164.729 293.841,165.756 297.563,165.109 301.132 C 163.752 308.605,157.356 308.092,157.039 300.484 C 156.806 294.915,159.592 291.264,162.833 292.890 M205.078 345.833 C 204.326 347.636,204.333 348.241,205.109 348.640 C 206.710 349.463,207.309 350.877,206.678 352.344 C 206.237 353.369,206.409 353.667,207.441 353.667 C 208.617 353.667,209.333 354.389,209.333 355.575 C 209.333 356.228,209.668 356.363,210.244 355.942 C 210.682 355.621,210.489 354.638,209.842 353.901 C 209.167 353.132,209.126 352.086,209.750 351.500 C 210.492 350.803,210.042 350.049,208.482 349.373 C 207.177 348.807,206.480 347.471,206.992 346.515 C 207.120 346.276,206.995 346.079,206.340 345.485 L 205.529 344.750 205.078 345.833 M195.826 346.680 C 195.682 346.949,195.703 347.156,195.919 347.613 C 196.484 348.803,195.698 350.153,194.225 350.524 C 193.359 350.742,192.828 351.356,193.113 351.808 C 193.387 352.244,193.707 352.208,194.329 351.674 C 195.074 351.034,195.686 350.902,196.357 351.237 C 196.647 351.382,196.901 351.500,196.921 351.500 C 196.940 351.500,197.053 351.156,197.171 350.735 C 197.289 350.314,197.586 349.772,197.832 349.530 C 198.219 349.148,198.261 349.011,198.147 348.503 C 198.075 348.181,197.970 347.560,197.915 347.125 L 197.813 346.333 196.912 346.333 C 196.171 346.333,195.979 346.395,195.826 346.680 " stroke="none" fill="#ffffff" fill-rule="evenodd"></path></g></svg>